<svg xmlns="http://www.w3.org/2000/svg" width="800" height="800" fill="none" viewBox="0 0 24 24"><g fill="#000" fill-rule="evenodd" clip-path="url(#a)" clip-rule="evenodd"><path d="M12 7.5a4.5 4.5 0 1 0 0 9 4.5 4.5 0 0 0 0-9M9.5 12a2.5 2.5 0 1 1 5 0 2.5 2.5 0 0 1-5 0"/><path d="M12 2.5c-4.19 0-7.194 2.343-9.097 4.569a19 19 0 0 0-2.645 4.08 12 12 0 0 0-.17.376l-.01.023-.003.008v.002l-.001.001-.148.364.139.368v.001l.001.003.003.007.01.025.033.084q.044.107.127.299a18.3 18.3 0 0 0 2.578 4.148C4.702 19.124 7.708 21.5 12 21.5s7.298-2.376 9.182-4.642a18.3 18.3 0 0 0 2.578-4.148 11 11 0 0 0 .161-.383l.01-.025.003-.007v-.003l.001-.001.139-.368-.148-.364-.002-.003-.003-.008-.01-.024-.035-.082q-.045-.107-.134-.294a19 19 0 0 0-2.645-4.08C19.193 4.844 16.19 2.5 12 2.5m11 9.437.935.354zm.926-.378-.926.378zM1 11.937l-.926-.378zm-.935.354L1 11.937zm2.445.517c-.185-.35-.324-.645-.42-.858a17 17 0 0 1 2.332-3.582C6.129 6.376 8.626 4.5 12 4.5s5.872 1.875 7.577 3.869a17 17 0 0 1 2.332 3.581 16.3 16.3 0 0 1-2.265 3.629C17.969 17.594 15.474 19.5 12 19.5s-5.97-1.906-7.644-3.92a16.3 16.3 0 0 1-1.846-2.772"/></g><defs><clipPath id="a"><path fill="#fff" d="M0 0h24v24H0z"/></clipPath></defs></svg>