<svg xmlns="http://www.w3.org/2000/svg" width="800" height="800" fill="none" viewBox="0 0 24 24"><g fill="#000" clip-path="url(#a)"><path fill-rule="evenodd" d="M23.707.293a1 1 0 0 1 0 1.414l-4.718 4.718-.026.026L6.428 18.986l-.026.026-4.695 4.695a1 1 0 0 1-1.414-1.414l3.941-3.942c-1.318-1.21-2.292-2.565-2.961-3.671a18 18 0 0 1-.903-1.683 13 13 0 0 1-.283-.647l-.015-.04-.005-.013-.002-.004v-.002L1 11.937l-.926-.378.001-.003.003-.008.01-.024.036-.082q.045-.107.134-.294a19 19 0 0 1 2.645-4.08C4.806 4.844 7.809 2.5 12 2.5c2.452 0 4.505.806 6.165 1.92L22.293.294a1 1 0 0 1 1.414 0M9.672 12.913l3.242-3.241a2.5 2.5 0 0 0-3.242 3.242m4.723-4.723a4.5 4.5 0 0 0-6.205 6.205l-2.54 2.54c-1.166-1.056-2.049-2.27-2.666-3.29a16 16 0 0 1-.893-1.695 17 17 0 0 1 2.332-3.582C6.128 6.376 8.625 4.5 12 4.5c1.83 0 3.395.548 4.718 1.367z" clip-rule="evenodd"/><path d="m.074 11.56-.148.363.138.367.936-.353zm20.533-3.563a1 1 0 0 1 1.396.225c.644.891 1.12 1.716 1.437 2.32a16 16 0 0 1 .475.992l.007.017.003.006v.002l-.925.378.935.354v.001l-.001.003-.003.007-.01.025-.033.084q-.044.107-.128.299a18.3 18.3 0 0 1-2.578 4.148C19.298 19.124 16.292 21.5 12 21.5c-.873 0-1.697-.099-2.473-.277a1 1 0 1 1 .449-1.95A9 9 0 0 0 12 19.5c3.475 0 5.97-1.906 7.644-3.92a16.3 16.3 0 0 0 2.265-3.63 17.3 17.3 0 0 0-1.527-2.557 1 1 0 0 1 .225-1.396"/><path d="M23.935 12.291 23 11.937l.926-.377.148.363z"/></g><defs><clipPath id="a"><path fill="#fff" d="M0 0h24v24H0z"/></clipPath></defs></svg>